<svg xmlns="http://www.w3.org/2000/svg" version="1.1" xmlns:xlink="http://www.w3.org/1999/xlink" xmlns:svgjs="http://svgjs.com/svgjs" width="30" height="30" x="0" y="0" viewBox="0 0 512 512" style="enable-background:new 0 0 512 512" xml:space="preserve" class=""><g><path fill-rule="evenodd" d="M256 0c141.385 0 256 114.615 256 256S397.385 512 256 512 0 397.385 0 256 114.615 0 256 0zm126.461 162.867h-44.228v-24.726a22.312 22.312 0 0 0-22.28-22.275h-119.91a22.3 22.3 0 0 0-22.276 22.275v24.726h-44.228a36.087 36.087 0 0 0-35.862 32.465l39.36 24.28 56.211 34.673h17.589v-15.274a8.516 8.516 0 0 1 8.517-8.517H296a8.52 8.52 0 0 1 8.522 8.517v15.274h18.221l46-28.374 49.581-30.584a36.1 36.1 0 0 0-35.862-32.461zm-249.425 76.759L93.5 215.239V360.1a36.081 36.081 0 0 0 36.039 36.038h252.922A36.088 36.088 0 0 0 418.5 360.1V215.237l-49.758 30.693-39.11 24.123a8.5 8.5 0 0 1-4.471 1.271h-20.639v15.269a8.518 8.518 0 0 1-8.522 8.521h-80.646a8.513 8.513 0 0 1-8.517-8.521v-15.269H186.83a8.512 8.512 0 0 1-4.467-1.271l-49.327-30.425zm90.834 38.45h63.614v-30.548H223.87zM190.8 132.9v29.968h130.394V132.9z" fill="#276EF1" data-original="#000000" class=""></path></g></svg>