<svg xmlns="http://www.w3.org/2000/svg" version="1.1" xmlns:xlink="http://www.w3.org/1999/xlink" xmlns:svgjs="http://svgjs.com/svgjs" width="30" height="30" x="0" y="0" viewBox="0 0 512.003 512.003" style="enable-background:new 0 0 512 512" xml:space="preserve" class=""><g><circle cx="226" cy="436.002" r="45" fill="#FFFFFF" data-original="#000000"></circle><circle cx="377" cy="436.002" r="45" fill="#FFFFFF" data-original="#000000"></circle><path d="M15 61.002h62.553l72.418 253.513-5.68 11.36c-14.956 29.88 6.755 65.127 40.254 65.127H437c8.291 0 15-6.709 15-15s-6.709-15-15-15H184.545c-11.139 0-18.419-11.729-13.418-21.709l4.146-8.291H437a15.012 15.012 0 0 0 14.429-10.884l60-210a15.04 15.04 0 0 0-2.446-13.154 15.048 15.048 0 0 0-11.982-5.962H117.323L103.29 41.885a15.013 15.013 0 0 0-14.429-10.884H15c-8.291 0-15 6.709-15 15s6.709 15.001 15 15.001z" fill="#FFFFFF" data-original="#000000"></path></g></svg>