<svg xmlns="http://www.w3.org/2000/svg" version="1.1" xmlns:xlink="http://www.w3.org/1999/xlink" xmlns:svgjs="http://svgjs.com/svgjs" width="30" height="30" x="0" y="0" viewBox="0 0 512 512" style="enable-background:new 0 0 512 512" xml:space="preserve"><g transform="matrix(-1,0,0,1,515.446704864502,0)"><path d="M491.98 325.97c-8.13-7.538-20.546-8.324-29.52-1.866-27.214 19.582-55.348 36.452-83.621 50.14a3.501 3.501 0 0 0 3.05 6.3c28.635-13.863 57.119-30.941 84.659-50.758 6.282-4.517 14.976-3.964 20.675 1.318 5.89 5.459 7.002 14.257 2.645 20.922-35.452 54.248-115.111 99.24-188.38 136.098-26.061 11.219-85.236.127-129.308-24.255-11.29-6.246-24.235-8.941-37.444-7.795l-18.039 1.569a3.501 3.501 0 0 0-3.184 3.79c.168 1.925 1.874 3.336 3.79 3.184l18.039-1.568c11.816-1.028 23.38 1.375 33.449 6.945 33.64 18.61 74.726 29.514 105.577 29.513 11.837-.001 22.173-1.607 29.995-5 .06-.026.121-.054.181-.083 74.126-37.286 154.808-82.907 191.184-138.568 6.23-9.532 4.654-22.1-3.748-29.885z" fill="#06C167" data-original="#000000"></path><path d="M241.152 344.976c9.74 6.148 19.81 12.506 30.33 17.238 18.928 8.515 37.665 14.45 54.197 19.684 11.7 3.706 22.753 7.206 32.567 11.174 2.827 1.143 4.751 3.652 5.148 6.711.39 3.005-.804 5.863-3.193 7.649-24.206 18.096-100.303 10.007-148.043-15.735a3.501 3.501 0 0 0-3.322 6.162c31.325 16.891 73.34 26.261 107.08 26.261 20.767 0 38.4-3.55 48.477-11.08 4.439-3.32 6.66-8.611 5.943-14.155-.726-5.6-4.265-10.2-9.466-12.303-10.066-4.07-21.244-7.61-33.078-11.357-16.35-5.178-34.88-11.046-53.438-19.395-9.293-4.18-18.404-9.803-27.248-15.376l10.87-29.116a3.501 3.501 0 0 0-6.558-2.45l-10.361 27.753c-17.38-10.915-35.457-21.49-56.626-22.691l37.051-37.052a3.499 3.499 0 0 0 0-4.949 3.499 3.499 0 0 0-4.949 0l-42.35 42.35c-23.008 2.226-47.218 10.695-73.793 25.825a3.501 3.501 0 0 0 3.463 6.084c27.918-15.895 53.001-24.196 76.676-25.375 22.43.03 40.984 11.743 60.623 24.143zM336.137 362.31a13.123 13.123 0 0 0 9.342 3.87c3.529 0 6.846-1.374 9.341-3.87l108.492-108.492c5.15-5.15 5.15-13.53 0-18.682L418.476 190.3l-.001-.001-.001-.001L258.289 30.114c-5.15-5.152-13.532-5.152-18.683 0L131.114 138.605c-5.15 5.152-5.15 13.533.001 18.683L336.137 362.31zm-90.858-142.111a2.228 2.228 0 0 1-.495.104c-.676-1.18-.725-5.38-.753-7.687-.062-5.259-.12-10.227-3.034-13.14-2.912-2.912-7.879-2.971-13.138-3.033-2.306-.027-6.507-.077-7.688-.754.08-1.384 2.635-4.976 4.034-6.945 2.977-4.186 5.79-8.141 5.17-12.062-.624-3.963-4.545-6.88-8.695-9.97-1.916-1.425-5.41-4.025-5.924-5.302.891-1.036 4.96-2.414 7.191-3.17 4.928-1.669 9.582-3.245 11.421-6.852 1.778-3.489.34-8.069-1.183-12.918-.75-2.39-2.131-6.787-1.673-8.045 1.257-.456 5.656.922 8.046 1.673 4.85 1.522 9.43 2.959 12.918 1.182 3.607-1.839 5.183-6.493 6.852-11.42.751-2.217 2.116-6.246 3.151-7.172l.024-.018c1.277.518 3.874 4.009 5.298 5.922 3.089 4.151 6.006 8.072 9.969 8.696 3.932.617 7.876-2.193 12.061-5.17 1.969-1.4 5.562-3.954 6.946-4.034.677 1.18.727 5.38.754 7.688.022 1.896.047 3.752.202 5.49l.007.08c.28 3.048.978 5.721 2.824 7.567 2.913 2.913 7.88 2.972 13.14 3.034 2.306.028 6.506.078 7.687.754-.08 1.385-2.635 4.978-4.035 6.947-2.976 4.186-5.788 8.14-5.17 12.061.625 3.962 4.545 6.88 8.696 9.969 1.916 1.425 5.411 4.025 5.924 5.302-.892 1.037-4.961 2.415-7.192 3.17-4.927 1.67-9.58 3.245-11.42 6.852-1.778 3.488-.34 8.07 1.183 12.92.75 2.39 2.13 6.786 1.673 8.044-1.265.453-5.656-.922-8.045-1.673-4.2-1.318-8.193-2.567-11.455-1.728l-.045.01c-.49.13-.964.304-1.42.535-3.606 1.84-5.183 6.494-6.852 11.421-.755 2.232-2.132 6.3-3.17 7.192-1.276-.514-3.876-4.009-5.301-5.924-3.09-4.151-6.007-8.072-9.97-8.696a7.088 7.088 0 0 0-1.11-.086c-3.559 0-7.16 2.56-10.952 5.256-1.532 1.089-4.045 2.874-5.738 3.65-.249.069-.488.16-.713.28zm21.22 20.584a87.05 87.05 0 0 0-.678-.333c-6.23-3.037-13.184-1.411-17.657 2.99l2.016-17.808c1.87-1.006 3.751-2.339 5.607-3.658 1.996-1.42 5.693-4.09 6.91-3.962 1.202.255 3.964 3.967 5.449 5.962 3.221 4.33 6.543 8.797 10.97 8.796a6.76 6.76 0 0 0 1.055-.084c2.635-.416 4.405-2.239 5.769-4.678l-3.472 30.67c-2.804-7.62-8.39-14.114-15.97-17.895zm42.08-150.48 102.471 102.47-7.616 7.617a3.499 3.499 0 1 0 4.949 4.949l7.617-7.616 42.361 42.362a6.22 6.22 0 0 1 .001 8.784L349.872 357.36a6.174 6.174 0 0 1-4.393 1.82 6.17 6.17 0 0 1-4.391-1.82h-.001l-42.362-42.362 7.617-7.617a3.499 3.499 0 0 0 0-4.95 3.499 3.499 0 0 0-4.95 0l-7.617 7.618-9.054-9.054 9.907-87.505c1.67.345 3.783 1.008 5.28 1.478 5.64 1.771 11.47 3.6 15.109-.04 3.638-3.639 1.808-9.469.039-15.107-.72-2.289-2.057-6.55-1.626-7.642.596-1.088 5.042-2.594 7.43-3.403 5.475-1.854 11.138-3.771 11.912-8.693.783-4.96-4.043-8.552-8.711-12.025-1.995-1.484-5.705-4.246-5.958-5.433-.105-1.21 2.539-4.928 3.959-6.925 3.395-4.776 6.907-9.715 4.601-14.237-2.233-4.38-8.152-4.451-13.877-4.519-2.577-.03-7.375-.088-8.272-.984-.4-.4-.633-1.582-.77-2.994l4.835-42.663zm-172.515 53.252 108.492-108.49a6.193 6.193 0 0 1 4.392-1.817c1.59 0 3.18.606 4.392 1.815l48.912 48.913-1.327 11.704c-2.433-5.56-6.795-10.22-12.555-12.886a69.68 69.68 0 0 0-.48-.22c-8.736-3.969-18.447-.608-23.474 6.636l1.386-22.978a3.498 3.498 0 0 0-3.282-3.704 3.478 3.478 0 0 0-3.706 3.283l-2.675 44.367c-2.026 2.326-3.248 5.916-4.44 9.436-.81 2.389-2.315 6.834-3.387 7.422-1.113.443-5.21-.848-7.657-1.617-5.64-1.772-11.47-3.603-15.11.039-3.64 3.64-1.809 9.47-.038 15.108.768 2.45 2.056 6.55 1.626 7.641-.597 1.089-5.043 2.595-7.432 3.403-5.474 1.855-11.137 3.772-11.912 8.693-.782 4.96 4.044 8.552 8.711 12.025 1.995 1.485 5.707 4.246 5.959 5.435.104 1.21-2.538 4.927-3.959 6.924-3.396 4.776-6.907 9.714-4.602 14.237 2.234 4.38 8.154 4.451 13.878 4.518 2.578.032 7.375.088 8.272.984.896.897.953 5.695.984 8.273.068 5.724.138 11.643 4.518 13.876.469.24.943.402 1.42.523l-3.269 28.877L136.064 152.34a6.22 6.22 0 0 1 0-8.784z" fill="#06C167" data-original="#000000"></path><path d="M301.184 159.343a3.505 3.505 0 0 0-4.462-2.144l-55.2 19.383a3.501 3.501 0 0 0 2.319 6.606l55.199-19.383a3.501 3.501 0 0 0 2.144-4.462zM360.027 252.246c.896 0 1.791-.342 2.475-1.025l17.876-17.876a3.499 3.499 0 0 0 0-4.95 3.499 3.499 0 0 0-4.95 0l-17.875 17.876a3.499 3.499 0 0 0 2.474 5.975zM321.8 286.973c.684.683 1.58 1.025 2.475 1.025s1.791-.342 2.475-1.025l17.876-17.876a3.499 3.499 0 0 0 0-4.95 3.499 3.499 0 0 0-4.95 0l-17.875 17.876a3.499 3.499 0 0 0 0 4.95zM428.776 247.91c.684.683 1.58 1.025 2.475 1.025s1.791-.342 2.475-1.026a3.499 3.499 0 0 0 0-4.949l-16.21-16.209a3.499 3.499 0 0 0-4.949 0 3.499 3.499 0 0 0 0 4.95zM411.813 264.873c.684.684 1.58 1.025 2.475 1.025s1.791-.341 2.475-1.025a3.499 3.499 0 0 0 0-4.95l-16.21-16.208a3.499 3.499 0 0 0-4.948 0 3.499 3.499 0 0 0 0 4.95zM378.642 260.678a3.499 3.499 0 0 0 0 4.949l16.209 16.209c.683.684 1.579 1.025 2.474 1.025s1.791-.341 2.475-1.025a3.499 3.499 0 0 0 0-4.95l-16.21-16.208a3.499 3.499 0 0 0-4.948 0zM366.627 277.64a3.499 3.499 0 0 0-4.95 0 3.499 3.499 0 0 0 0 4.95l16.21 16.209c.683.683 1.579 1.025 2.474 1.025s1.791-.342 2.475-1.025a3.499 3.499 0 0 0 0-4.95zM344.715 299.553l16.209 16.209c.683.683 1.579 1.025 2.474 1.025s1.791-.342 2.475-1.025a3.499 3.499 0 0 0 0-4.95l-16.209-16.208a3.499 3.499 0 0 0-4.95 0 3.499 3.499 0 0 0 0 4.949zM332.701 311.567a3.499 3.499 0 0 0-4.95 0 3.499 3.499 0 0 0 0 4.95l16.21 16.209c.684.683 1.579 1.025 2.475 1.025s1.79-.342 2.474-1.025a3.499 3.499 0 0 0 0-4.95zM391.91 105.022c.895 0 1.79-.341 2.474-1.025l41.324-41.324a3.499 3.499 0 0 0 0-4.95 3.499 3.499 0 0 0-4.95 0l-41.323 41.325a3.499 3.499 0 0 0 2.474 5.974zM117.001 266.994c.406 0 .82-.071 1.224-.222l66.318-24.758a3.501 3.501 0 0 0-2.45-6.559l-66.318 24.759a3.501 3.501 0 0 0 1.226 6.78zM431.843 145.96a3.503 3.503 0 0 0 4.504 2.055l42.31-15.798a3.501 3.501 0 0 0-2.45-6.559l-42.31 15.798a3.501 3.501 0 0 0-2.054 4.504zM347.47 61.589a3.498 3.498 0 0 0 4.505-2.055l15.798-42.31a3.501 3.501 0 0 0-6.558-2.449l-15.799 42.31a3.501 3.501 0 0 0 2.055 4.504zM86.397 342.163c-.695-6.129-6.228-10.534-12.356-9.838l-48.205 5.467c-6.129.696-10.534 6.228-9.839 12.356L31.21 484.264c.695 6.13 6.227 10.534 12.356 9.839l48.205-5.468c6.129-.695 10.533-6.227 9.838-12.356zm-33.793 45.153c-9.48 0-17.166-7.685-17.166-17.165s7.686-17.165 17.166-17.165 17.165 7.685 17.165 17.165-7.685 17.165-17.165 17.165z" fill="#06C167" data-original="#000000"></path><circle cx="272.614" cy="193.079" r="10.305" fill="#06C167" data-original="#000000"></circle><circle cx="267.948" cy="147.308" r="10.305" fill="#06C167" data-original="#000000"></circle></g></svg>