<svg xmlns="http://www.w3.org/2000/svg" version="1.1" xmlns:xlink="http://www.w3.org/1999/xlink" xmlns:svgjs="http://svgjs.com/svgjs" width="30" height="30" x="0" y="0" viewBox="0 0 424.758 424.758" style="enable-background:new 0 0 512 512" xml:space="preserve"><g><circle cx="212.399" cy="60.757" r="36" fill="#000000" data-original="#000000"></circle><path d="M333.199 16.757c.409-8.837-6.423-16.331-15.26-16.74-8.837-.409-16.331 6.423-16.74 15.26-.24 3.76-8.44 89.48-88.8 89.48s-88.52-85.76-88.84-89.36c-.409-8.837-7.903-15.669-16.74-15.26-8.837.409-15.669 7.903-15.26 16.74.28 36.44 17.72 99.56 76.8 120.72v102.76l-8 167.64c-.438 8.65 6.086 16.078 14.72 16.76h1.32c8.152.056 15.042-6.025 16-14.12l17.24-145.88h5.48l17.28 145.88c.958 8.095 7.848 14.176 16 14.12h1.36c8.602-.723 15.08-8.139 14.64-16.76l-8-167.64v-102.76c59.08-21.16 76.56-84.32 76.8-120.84z" fill="#000000" data-original="#000000"></path></g></svg>