<svg xmlns="http://www.w3.org/2000/svg" version="1.1" xmlns:xlink="http://www.w3.org/1999/xlink" xmlns:svgjs="http://svgjs.com/svgjs" width="512" height="512" x="0" y="0" viewBox="0 0 512 512" style="enable-background:new 0 0 512 512" xml:space="preserve"><g><path d="M495.938 128.81 404.48 24.107c-23.629-27.05-64.656-29.83-91.716-6.192l-60.263 52.64c-27.056 23.633-29.83 64.656-6.193 91.715l16.123 18.458-22.598 19.74-.001-.001c-5.45-6.239-14.926-6.88-21.165-1.429-6.239 5.45-6.879 14.926-1.429 21.165l.001.001-22.599 19.74-.001-.001c-5.45-6.238-14.926-6.88-21.165-1.429-6.239 5.45-6.879 14.926-1.429 21.165l.001.001-156.67 136.847c-18.688 16.325-20.612 44.811-4.287 63.499 16.346 18.714 44.766 20.651 63.5 4.288l18.078-15.791 49.346 56.491c5.462 6.252 14.94 6.867 21.165 1.429l21.612-18.877a14.998 14.998 0 0 0 5.095-10.248l1.909-27.235 26.341 2.263a14.99 14.99 0 0 0 11.152-3.648l23.523-20.548c6.239-5.45 6.879-14.926 1.429-21.165l-49.346-56.491 26.364-23.029.001.001c5.462 6.252 14.94 6.867 21.165 1.429 6.239-5.45 6.879-14.926 1.429-21.165l-.001-.001 22.599-19.74.001.001c5.462 6.252 14.94 6.867 21.165 1.429 6.239-5.45 6.879-14.926 1.429-21.165l-.001-.001 22.598-19.74 16.123 18.458c23.61 27.028 64.659 29.827 91.716 6.192l60.263-52.64c27.057-23.631 29.831-64.654 6.194-91.713zM221.776 415.424l-7.425 6.486-35.172-3.021c-8.332-.724-15.662 5.539-16.248 13.896l-2.541 36.26-5.651 4.937-39.478-45.194 67.038-58.557zM54.853 441.72c-6.271 5.478-15.734 4.792-21.169-1.429-5.442-6.23-4.801-15.727 1.429-21.169l156.669-136.849 19.74 22.598zm179.263-156.585-19.74-22.598 22.599-19.74 19.74 22.598zm45.193-39.476-19.74-22.598 22.598-19.74 19.74 22.598zM470.01 197.93l-60.264 52.641c-14.568 12.725-36.658 11.235-49.385-3.334l-91.458-104.703c-12.726-14.567-11.236-36.657 3.335-49.384l60.264-52.64c14.554-12.713 36.658-11.235 49.385 3.334l91.458 104.703c12.725 14.567 11.234 36.656-3.335 49.383z" fill="#000000" data-original="#000000"></path><path d="M365.87 71.118c-5.438-6.225-14.913-6.888-21.165-1.429l-45.193 39.476c-6.239 5.45-6.879 14.926-1.429 21.165l78.293 89.632c5.438 6.226 14.915 6.889 21.165 1.429l45.193-39.476c6.239-5.45 6.879-14.926 1.429-21.165zm23.233 117.81-58.557-67.037 22.598-19.74 58.557 67.037z" fill="#000000" data-original="#000000"></path></g></svg>