<svg xmlns="http://www.w3.org/2000/svg" version="1.1" xmlns:xlink="http://www.w3.org/1999/xlink" xmlns:svgjs="http://svgjs.com/svgjs" width="30" height="30" x="0" y="0" viewBox="0 0 512 512" style="enable-background:new 0 0 512 512" xml:space="preserve"><g><path d="M512 402.282c0 16.716-13.55 30.267-30.265 30.267H30.265C13.55 432.549 0 418.997 0 402.282V109.717c0-16.716 13.55-30.266 30.265-30.266h451.47c16.716 0 30.265 13.551 30.265 30.266v292.565z" style="" fill="#92DBEF" data-original="#92dbef"></path><path d="M21.517 402.282V109.717c0-16.716 13.552-30.266 30.267-30.266h-21.52C13.55 79.451 0 93.001 0 109.717v292.565c0 16.716 13.55 30.267 30.265 30.267h21.52c-16.715 0-30.268-13.552-30.268-30.267z" style="opacity:0.15;enable-background:new ;" fill="#202121" data-original="#202121"></path><path d="M332.435 148.47c-11.22-12.825-32.057-19.233-60.905-19.233h-80.143c-4.811 0-9.616 4.812-11.22 9.613L148.11 348.817c0 4.815 3.207 8.014 6.407 8.014h49.687l12.823-78.534v3.206c1.606-4.813 6.409-9.615 11.222-9.615h24.045c46.479 0 81.733-19.233 92.955-72.132v-4.808c-1.602 0-1.602 0 0 0 1.605-20.831-1.601-33.656-12.814-46.478" style="" fill="#263B80" data-original="#263b80"></path><path d="M345.25 199.756v-4.808c.011-.159.018-.307.028-.465a45.364 45.364 0 0 0-7.561-4.259c-9.732-4.021-19.684-4.779-24.278-4.894l-.024-.02h-23.374l.03.019h-49.03c-8.336.303-10.634 7.024-11.236 9.948l-12.777 83.021v3.205c1.606-4.813 6.409-9.615 11.222-9.615h24.045c46.479 0 81.733-19.234 92.955-72.132z" style="" fill="#232C65" data-original="#232c65"></path><path d="M360.996 214.814c-3.622-9.993-10.031-16.378-15.717-20.332-.011.158-.018.306-.028.465v4.808c-11.222 52.898-46.476 72.132-92.955 72.132h-24.045c-4.813 0-9.616 4.801-11.222 9.615v-1.236c-.183.41-.352.823-.49 1.236l-9.055 55.247-3.279 20.082h-.012l-3.679 22.442c0 3.204 1.605 6.403 6.408 6.403h39.953c8.038 0 10.563-6.253 11.339-9.622l.339-2.093v-.001l7.672-47.584s1-11.219 11.945-11.219h4.089c40.07 0 72.126-16.025 80.139-64.107 2.228-13.405 2.118-26.018-1.402-36.236z" style="" fill="#139AD6" data-original="#139ad6"></path></g></svg>