<svg xmlns="http://www.w3.org/2000/svg" version="1.1" xmlns:xlink="http://www.w3.org/1999/xlink" xmlns:svgjs="http://svgjs.com/svgjs" width="30" height="30" x="0" y="0" viewBox="0 0 512 512" style="enable-background:new 0 0 512 512" xml:space="preserve" class=""><g><path d="M437.02 74.981C388.667 26.629 324.38 0 256 0S123.333 26.629 74.98 74.981C26.629 123.333 0 187.62 0 256s26.629 132.667 74.98 181.019C123.333 485.371 187.62 512 256 512s132.667-26.629 181.02-74.981C485.371 388.667 512 324.38 512 256s-26.629-132.667-74.98-181.019zM256 482c-66.869 0-127.037-29.202-168.452-75.511C113.223 338.422 178.948 290 256 290c-49.706 0-90-40.294-90-90s40.294-90 90-90 90 40.294 90 90-40.294 90-90 90c77.052 0 142.777 48.422 168.452 116.489C383.037 452.798 322.869 482 256 482z" fill="#000000" data-original="#000000" class=""></path></g></svg>