<svg xmlns="http://www.w3.org/2000/svg" version="1.1" xmlns:xlink="http://www.w3.org/1999/xlink" xmlns:svgjs="http://svgjs.com/svgjs" width="30" height="30" x="0" y="0" viewBox="0 0 32 32" style="enable-background:new 0 0 512 512" xml:space="preserve" class=""><g transform="matrix(-1,0,0,1,31.999277114868164,0)"><g data-name="tag, sale, discount, promo"><path d="M28.707 16.384 16.202 3.879A3.02 3.02 0 0 0 14.082 3h-6.81A4.284 4.284 0 0 0 3 7.252v6.83a2.98 2.98 0 0 0 .879 2.12l9.414 9.414c.878.796 2.242-.483 1.414-1.414l-9.414-9.414A1.009 1.009 0 0 1 5 14.081V7.258A2.278 2.278 0 0 1 7.273 5h6.808c.265 0 .52.106.707.293l11.798 11.798-10.202 10.202c-.972.943.471 2.386 1.414 1.414l10.909-10.91a1 1 0 0 0 0-1.413z" fill="#000000" data-original="#000000" class=""></path><path d="M7 10a3 3 0 1 0 3-3 3.003 3.003 0 0 0-3 3zm4 0a1 1 0 1 1-1-1 1 1 0 0 1 1 1z" fill="#000000" data-original="#000000" class=""></path></g></g></svg>