<svg xmlns="http://www.w3.org/2000/svg" version="1.1" xmlns:xlink="http://www.w3.org/1999/xlink" xmlns:svgjs="http://svgjs.com/svgjs" width="30" height="30.00111024758521" x="0" y="0" viewBox="0 0 27.021 27.022" style="enable-background:new 0 0 512 512" xml:space="preserve" class=""><g><path d="M17.855 21.223c0-1.902 1.049-3.55 2.588-4.44-.963-.308-2-.552-3.09-.722a7.617 7.617 0 0 0-3.688-14.28 7.617 7.617 0 0 0-3.688 14.28C4.223 16.958 0 19.897 0 23.389h18.35a5.095 5.095 0 0 1-.495-2.166z" fill="#000000" data-original="#000000" class=""></path><path d="M23.004 17.206a4.017 4.017 0 1 0-.001 8.035 4.017 4.017 0 0 0 .001-8.035zm2.623 4.73h-1.909v1.91h-1.427v-1.91h-1.91v-1.429h1.91v-1.911h1.427v1.911h1.909v1.429z" fill="#000000" data-original="#000000" class=""></path></g></svg>