<svg xmlns="http://www.w3.org/2000/svg" version="1.1" xmlns:xlink="http://www.w3.org/1999/xlink" xmlns:svgjs="http://svgjs.com/svgjs" width="30" height="30" x="0" y="0" viewBox="0 0 32 32" style="enable-background:new 0 0 512 512" xml:space="preserve" class=""><g><path d="m29.911 13.75-6.229 6.072 1.471 8.576a1 1 0 0 1-1.451 1.054L16 25.403l-7.701 4.048a1 1 0 0 1-1.451-1.054l1.471-8.576-6.23-6.071a1 1 0 0 1 .555-1.706l8.609-1.25 3.85-7.802c.337-.683 1.457-.683 1.794 0l3.85 7.802 8.609 1.25a1.002 1.002 0 0 1 .555 1.706z" fill="#FFFFFF" data-original="#000000" class=""></path></g></svg>