<svg xmlns="http://www.w3.org/2000/svg" version="1.1" xmlns:xlink="http://www.w3.org/1999/xlink" xmlns:svgjs="http://svgjs.com/svgjs" width="30" height="30" x="0" y="0" viewBox="0 0 64 64" style="enable-background:new 0 0 512 512" xml:space="preserve" class=""><g><path fill="#FFFFFF" d="M50.86 8a1.933 1.933 0 0 0-1.85-2H15.76a1.932 1.932 0 0 0-1.84 2v48a1.932 1.932 0 0 0 1.84 2h33.25a1.933 1.933 0 0 0 1.85-2V33.55L37.13 47.28l-4.8-4.8 16.46-16.46.24.24 1.83-1.84zM32.79 43.78l3.02 3.03a.498.498 0 0 1-.21.83l-4.27 1.24a.5.5 0 0 1-.62-.62L31.95 44a.509.509 0 0 1 .84-.22zm18.07-15.07v-.62l-1.83-1.83-.34.33z" data-original="#efeddf" class=""></path><circle cx="10.717" cy="14" r="1" fill="#276EF1" data-original="#000000" class=""></circle><path d="M43.717 15h-26a1 1 0 0 1 0-2h26a1 1 0 0 1 0 2zM43.717 20h-26a1 1 0 0 1 0-2h26a1 1 0 0 1 0 2zM43.717 25h-26a1 1 0 0 1 0-2h26a1 1 0 0 1 0 2zM28.717 30h-11a1 1 0 0 1 0-2h11a1 1 0 0 1 0 2z" fill="#276EF1" data-original="#000000" class=""></path><path fill="#276EF1" d="m50.387 27.605 3.204 3.203-16.464 16.464-3.204-3.204z" data-original="#98acf8" class=""></path><path fill="#276EF1" d="m32.253 49.232 3.485-1.533a.5.5 0 0 0 .152-.811l-1.952-1.952a.5.5 0 0 0-.81.152l-1.534 3.485a.5.5 0 0 0 .659.66zM57.151 27.253l-3.735 3.735-.104.115-3.13-3.021 3.839-3.839c1.422-1.422 3.23-1.781 3.64-1.37 1.367 1.366.912 2.934-.51 4.38z" data-original="#f05454" class=""></path><path fill="#276EF1" d="m53.59 30.82-.17.17-2.56 2.56v-4.84l-2.17-2.12.34-.33z" data-original="#98acf8" class=""></path><path d="m58.562 29.014-.685.684-.72-.72.626-.625c4.043-4.043-1.42-10.476-6.066-7.052V8a3.003 3.003 0 0 0-3-3h-36a3.003 3.003 0 0 0-3 3v2.875a1 1 0 0 0 2 0V8a1 1 0 0 1 1-1h36a1 1 0 0 1 1 1v15.201L30.87 42.048a1.957 1.957 0 0 0-.336.639c-.133.446-1.952 6.355-1.929 6.82l-1.074 1.075a1 1 0 0 0 1.415 1.414l1.069-1.07c.458.024 6.385-1.803 6.826-1.934a1.901 1.901 0 0 0 .639-.336L49.717 36.42v1.44l-1.174 1.173a.991.991 0 0 0 1.174 1.574V56a1 1 0 0 1-1 1h-36a1 1 0 0 1-1-1V16.937a1 1 0 0 0-2 0V56a3.003 3.003 0 0 0 3 3h36a3.003 3.003 0 0 0 3-3V38.687l8.259-8.26a1 1 0 0 0-1.414-1.413zm-2.193-2.076-3.27 3.27-3.78-3.78 3.27-3.27c2.497-2.498 6.28 1.28 3.78 3.78zm-8.464.904 3.78 3.78-14.541 14.542-3.781-3.78zM32.042 44.634l2.85 2.85-4.057 1.207zM51.717 34.42l4.026-4.026.72.72-4.746 4.745z" fill="#276EF1" data-original="#000000" class=""></path></g></svg>