<svg xmlns="http://www.w3.org/2000/svg" version="1.1" xmlns:xlink="http://www.w3.org/1999/xlink" xmlns:svgjs="http://svgjs.com/svgjs" width="30" height="30" x="0" y="0" viewBox="0 0 512.288 512.288" style="enable-background:new 0 0 512 512" xml:space="preserve" class=""><g><path d="M512.288 398.656c0 10.501-8.503 19.004-19.004 19.004H19c-10.494 0-19-8.503-19-19.004V113.631c0-10.494 8.506-19.003 19-19.003h474.285c10.501 0 19.004 8.509 19.004 19.003v285.025z" style="" fill="#21246E" data-original="#21246e" class=""></path><path d="m194.709 188.164-57 136.015h-37.204l-28.03-108.536c-1.726-6.694-3.201-9.129-8.375-11.971-8.475-4.583-22.417-8.882-34.727-11.559l.861-3.948H90.09c7.634 0 14.497 5.092 16.223 13.87l14.821 78.723 36.608-92.593h36.967zm145.728 91.586c.165-35.878-49.645-37.831-49.287-53.882.097-4.899 4.741-10.084 14.911-11.393 5.05-.672 18.948-1.164 34.7 6.067l6.174-28.829c-8.475-3.076-19.369-6.022-32.909-6.022-34.775 0-59.257 18.497-59.463 44.963-.228 19.572 17.466 30.493 30.813 37.011 13.705 6.67 18.287 10.928 18.239 16.909-.09 9.129-10.935 13.119-21.05 13.298-17.694.276-27.957-4.782-36.153-8.599l-6.37 29.821c8.209 3.769 23.409 7.042 39.14 7.235 36.959-.001 61.138-18.301 61.255-46.579m91.834 44.428h32.55l-28.402-136.015H406.37c-6.752 0-12.444 3.938-14.98 9.97l-52.766 126.044h36.932l7.331-20.313h45.145l4.239 20.314zm-39.262-48.19 18.528-51.071 10.659 51.071h-29.187zm-148.017-87.824L215.88 324.178h-35.192l29.119-136.015h35.185z" style="" fill="#FFFFFF" data-original="#ffffff" class=""></path></g></svg>